<svg id="Layer_1" data-name="Layer 1" xmlns="http://www.w3.org/2000/svg" viewBox="0 0 28.5 21.69"><defs><style>.cls-1{fill:#1673db;}</style></defs><title>email_input</title><path class="cls-1" d="M105.91,74.62H84.37a3.48,3.48,0,0,0-3.48,3.49V92.83a3.48,3.48,0,0,0,3.48,3.48h21.54a3.48,3.48,0,0,0,3.48-3.48V78.11A3.48,3.48,0,0,0,105.91,74.62Zm1.89,18.21a1.89,1.89,0,0,1-1.89,1.89H84.37a1.89,1.89,0,0,1-1.89-1.89V78.11a1.89,1.89,0,0,1,1.89-1.89h21.54a1.89,1.89,0,0,1,1.89,1.89V92.83Z" transform="translate(-80.89 -74.62)"/><path class="cls-1" d="M98.86,85.28l7-6.25a.79.79,0,0,0-1.06-1.18l-9.62,8.62L93.28,84.8s0,0,0,0l-.13-.11L85.5,77.84a.79.79,0,0,0-1.12.07A.78.78,0,0,0,84.44,79l7.06,6.31-7,6.57a.8.8,0,0,0,0,1.13.83.83,0,0,0,.58.25.78.78,0,0,0,.54-.21l7.13-6.67,1.94,1.73a.81.81,0,0,0,.53.2.77.77,0,0,0,.53-.21l2-1.78,7.09,6.74a.81.81,0,0,0,.55.21.79.79,0,0,0,.54-1.37Z" transform="translate(-80.89 -74.62)"/></svg>