<svg id="Layer_1" data-name="Layer 1" xmlns="http://www.w3.org/2000/svg" viewBox="0 0 27.26 30.28"><defs><style>.cls-1{fill:#1673db;}</style></defs><title>password_input</title><path class="cls-1" d="M84.76,110.31H67.52a5,5,0,0,1-5-5V94.17a5,5,0,0,1,5-5H84.76a5,5,0,0,1,5,5v11.12A5,5,0,0,1,84.76,110.31Zm-17.24-19a2.84,2.84,0,0,0-2.83,2.84v11.12a2.84,2.84,0,0,0,2.83,2.84H84.76a2.84,2.84,0,0,0,2.83-2.84V94.17a2.84,2.84,0,0,0-2.83-2.84Z" transform="translate(-62.51 -80.03)"/><path class="cls-1" d="M83.85,87.74H81.67a5.53,5.53,0,0,0-11.06,0H68.43a7.71,7.71,0,0,1,15.42,0Z" transform="translate(-62.51 -80.03)"/><path class="cls-1" d="M76.14,103A1.08,1.08,0,0,1,75.05,102V98.77a1.09,1.09,0,0,1,2.18,0V102A1.08,1.08,0,0,1,76.14,103Z" transform="translate(-62.51 -80.03)"/></svg>