<svg id="Layer_1" data-name="Layer 1" xmlns="http://www.w3.org/2000/svg" viewBox="0 0 28.34 28.34"><defs><style>.cls-1{fill:#646a6d;}</style></defs><title>settings</title><g id="Settings"><path class="cls-1" d="M124.91,184.43a.92.92,0,0,0-.91-.7,3.13,3.13,0,0,1-2.14-5.45.79.79,0,0,0,.08-1.07A14.09,14.09,0,0,0,119.7,175a.79.79,0,0,0-1.08.08,3.25,3.25,0,0,1-3.53.8,3.14,3.14,0,0,1-1.91-3.08.8.8,0,0,0-.7-.83,14.18,14.18,0,0,0-3.19,0,.79.79,0,0,0-.7.81,3.14,3.14,0,0,1-1.94,3,3.28,3.28,0,0,1-3.51-.8.8.8,0,0,0-1.07-.09,14.05,14.05,0,0,0-2.29,2.27.78.78,0,0,0,.09,1.07,3.16,3.16,0,0,1,.79,3.54,3.28,3.28,0,0,1-3.09,1.92.75.75,0,0,0-.81.69,13.87,13.87,0,0,0,0,3.22.93.93,0,0,0,.93.7,3.1,3.1,0,0,1,2.91,1.94,3.15,3.15,0,0,1-.79,3.51.78.78,0,0,0-.08,1.06,13.37,13.37,0,0,0,2.24,2.27A.79.79,0,0,0,103,197a3.25,3.25,0,0,1,3.53-.8,3.16,3.16,0,0,1,1.92,3.08.79.79,0,0,0,.69.83,14.84,14.84,0,0,0,1.63.09,13.6,13.6,0,0,0,1.56-.09.79.79,0,0,0,.7-.81,3.14,3.14,0,0,1,1.94-3,3.25,3.25,0,0,1,3.51.8.8.8,0,0,0,1.07.09,14.05,14.05,0,0,0,2.29-2.27.79.79,0,0,0-.08-1.07,3.13,3.13,0,0,1,2.1-5.46h.18a.77.77,0,0,0,.82-.69A13.87,13.87,0,0,0,124.91,184.43Zm-14.06,6.33a4.73,4.73,0,1,1,4.73-4.73A4.73,4.73,0,0,1,110.85,190.76Z" transform="translate(-96.66 -171.83)"/></g></svg>