<svg id="Layer_1" data-name="Layer 1" xmlns="http://www.w3.org/2000/svg" viewBox="0 0 37.14 37.14"><defs><style>.cls-1{fill:#ec1c24;}.cls-2{fill:#fff;}.cls-3{fill:none;stroke:#231f20;stroke-miterlimit:22.93;stroke-width:0.64px;}.cls-4{fill:#231f20;}</style></defs><title>shenja1</title><circle class="cls-1" cx="18.57" cy="18.57" r="18.25"/><circle class="cls-2" cx="18.57" cy="18.57" r="13.42"/><circle class="cls-3" cx="18.57" cy="18.57" r="18.25"/><path class="cls-4" d="M148.86,139.78a3.58,3.58,0,0,0,.49.2l.28.12a1,1,0,0,1,.56.52c.29.59.58,1.18.82,1.79a3.27,3.27,0,0,1,.16,1.39,2,2,0,0,1-.12.72.56.56,0,0,1-.16.24.23.23,0,0,1-.39-.06,2.05,2.05,0,0,1-.16-.78c0-.29,0-.59,0-.88a.55.55,0,0,0-.07-.28,5,5,0,0,0-.74-1c0,.15,0,.31,0,.47.11,1.05.22,2.11.37,3.16.08.6.17,1.19.3,1.78a1.11,1.11,0,0,0,.4.67l1.58,1.33.59.55a.53.53,0,0,1,.16.52,3.56,3.56,0,0,1-.25.76.81.81,0,0,1-.79.52,1.51,1.51,0,0,1-.3,0c-.08,0-.11,0-.07-.14a3.14,3.14,0,0,1,.18-.31,1.93,1.93,0,0,0,.22-.36.28.28,0,0,0-.09-.4,8,8,0,0,0-.82-.57c-.48-.31-1-.61-1.44-.94a.94.94,0,0,1-.34-.42c-.34-.85-.67-1.71-1-2.56a.69.69,0,0,0,0-.1l-.09.13c-1,1.61-2.08,3.22-3.19,4.78-.14.2-.29.4-.44.58a.23.23,0,0,1-.25.1,3,3,0,0,1-1.41-.65s-.12-.09-.1-.18a.21.21,0,0,1,.19-.12,1.25,1.25,0,0,1,.43,0c.69,0,.6,0,.89-.46,1-1.68,1.9-3.39,2.77-5.12a2.43,2.43,0,0,0,.25-1,15.92,15.92,0,0,0-.1-1.95l-.12.33c-.11.31-.23.62-.37.92a.91.91,0,0,1-.27.34A3.77,3.77,0,0,1,145,144c-.14,0-.29,0-.38-.1a.34.34,0,0,1,.08-.41,1.88,1.88,0,0,1,.51-.42l.65-.42a.71.71,0,0,0,.34-.47,12.62,12.62,0,0,1,.36-1.34,1,1,0,0,1,.55-.63,2.63,2.63,0,0,0,.54-.3l.62-.11Z" transform="translate(-129.43 -126.43)"/><circle class="cls-4" cx="18.47" cy="11.88" r="1.06"/><rect class="cls-2" x="17.1" y="17.34" width="3.54" height="0.5"/></svg>